<svg width="56" height="56" viewBox="0 0 56 56" fill="none" xmlns="http://www.w3.org/2000/svg">
<g id="Frame" clip-path="url(#clip0_63_380)">
<path id="Vector" d="M2.33337 56C2.33337 53.5245 3.31671 51.1506 5.06704 49.4004C6.81739 47.6499 9.19134 46.6666 11.6667 46.6666C14.1421 46.6666 16.516 47.6499 18.2664 49.4004C20.0167 51.1506 21 53.5245 21 56" stroke="#B68151" stroke-width="4" stroke-linejoin="round"/>
<path id="Vector_2" d="M35 56C35 53.5245 35.9833 51.1506 37.7337 49.4004C39.484 47.6499 41.8579 46.6666 44.3333 46.6666C46.8088 46.6666 49.1827 47.6499 50.9329 49.4004C52.6834 51.1506 53.6667 53.5245 53.6667 56" stroke="#B68151" stroke-width="4" stroke-linejoin="round"/>
<path id="Vector_3" d="M44.3333 42C46.9107 42 49 39.9107 49 37.3333C49 34.7559 46.9107 32.6666 44.3333 32.6666C41.7559 32.6666 39.6666 34.7559 39.6666 37.3333C39.6666 39.9107 41.7559 42 44.3333 42Z" stroke="#B68151" stroke-width="4" stroke-linecap="round" stroke-linejoin="round"/>
<path id="Vector_4" d="M44.3333 25.6667H32.6666L21 35V25.6667H11.6666V2.33337H44.3333V25.6667Z" stroke="#B68151" stroke-width="4" stroke-linecap="round" stroke-linejoin="round"/>
<path id="Vector_5" d="M15.666 39.739C15.2455 40.4378 14.6493 41.0144 13.9366 41.411C13.224 41.8077 12.4198 42.0105 11.6043 41.9995C10.7888 41.9885 9.99039 41.7641 9.28868 41.3483C8.58698 40.9327 8.00645 40.3403 7.605 39.6305C7.20352 38.9204 6.99513 38.1178 7.00059 37.302C7.00603 36.4865 7.22513 35.6867 7.63603 34.9822C8.04695 34.2776 8.63533 33.6931 9.34251 33.2868C10.0497 32.8806 10.851 32.6666 11.6666 32.6666" stroke="#B68151" stroke-width="4" stroke-linejoin="round"/>
</g>
<defs>
<clipPath id="clip0_63_380">
<rect width="56" height="56" fill="white"/>
</clipPath>
</defs>
</svg>
