<svg width="48" height="8" viewBox="0 0 48 8" fill="none" xmlns="http://www.w3.org/2000/svg">
<g id="Group 3">
<path id="Vector" d="M16.3047 3.99998C16.3047 5.38602 15.1872 6.50947 13.8085 6.50947C12.4298 6.50947 11.3123 5.38602 11.3123 3.99998C11.3123 2.61393 12.4298 1.49048 13.8085 1.49048C15.1872 1.49048 16.3047 2.61393 16.3047 3.99998Z" fill="#B68151"/>
<path id="Vector_2" d="M20.263 3.99997L23.7932 0.451008L27.3234 3.99997L23.7932 7.54893L20.263 3.99997Z" fill="#B68151"/>
<path id="Vector_3" d="M0.293091 4L3.82327 0.451038L7.35346 4L3.82327 7.54896L0.293091 4Z" fill="#B68151"/>
<path id="Vector_4" d="M36.2744 3.99998C36.2744 5.38602 35.1569 6.50947 33.7782 6.50947C32.3995 6.50947 31.282 5.38602 31.282 3.99998C31.282 2.61393 32.3995 1.49048 33.7782 1.49048C35.1569 1.49048 36.2744 2.61393 36.2744 3.99998Z" fill="#B68151"/>
<path id="Vector_5" d="M40.2327 3.99997L43.7629 0.451008L47.2931 3.99997L43.7629 7.54893L40.2327 3.99997Z" fill="#B68151"/>
<path id="Vector_6" d="M3.82361 3.99991H43.7631" stroke="#B68151" stroke-width="1.0038" stroke-miterlimit="10"/>
</g>
</svg>
